<svg width="18" height="18" viewBox="0 0 18 18" fill="none" xmlns="http://www.w3.org/2000/svg">
<g clip-path="url(#clip0_801_64)">
<path fill-rule="evenodd" clip-rule="evenodd" d="M-0.0142809 6.95231C-0.0492332 3.75773 -0.0634434 2.45894 1.12478 1.22472C2.37181 -0.0682852 3.73363 -0.0569138 8.50242 -0.0170937C9.48988 -0.00884822 10.6234 0.000617064 11.9323 -2.62355e-05C14.0435 0.00365448 14.1635 0.0210635 14.5636 0.0791504L14.5865 0.0824738C16.4158 0.345724 17.804 1.64547 17.981 3.90072C18.005 4.20222 18.005 13.7955 17.9818 14.091C17.8153 16.2082 16.5973 17.4225 15.1003 17.8087C13.979 18.099 4.03103 18.099 2.90828 17.8102C-0.182816 17.0113 -0.10869 13.9818 -0.0270577 10.6456C-0.0137372 10.1012 -0.000216775 9.5486 -0.000216775 8.99622C-0.000216775 8.23774 -0.00762491 7.56065 -0.0142809 6.95231ZM8.34139 2.35116C8.55897 2.35273 8.77822 2.35431 8.99836 2.35431H8.99536C9.25722 2.35431 9.51043 2.3526 9.75541 2.35095C11.8785 2.33662 13.3828 2.32646 14.5259 3.46956C15.6645 4.60755 15.6564 6.08711 15.6444 8.27978C15.6432 8.51198 15.6419 8.75218 15.6419 9.00082C15.6419 9.23077 15.6427 9.4522 15.6435 9.66565C15.6495 11.2679 15.6538 12.4206 15.2931 13.3538C14.3809 15.6942 12.0626 15.6731 9.68263 15.6515C9.45421 15.6494 9.22523 15.6473 8.99686 15.6473C8.77812 15.6473 8.56 15.6489 8.34332 15.6505C5.88253 15.6684 3.60711 15.685 2.70136 13.3538C2.34134 12.427 2.34613 11.0488 2.35135 9.54898C2.35197 9.36784 2.35261 9.18492 2.35261 9.00082C2.35261 8.77417 2.35181 8.55548 2.35103 8.34432C2.34515 6.74148 2.34086 5.57219 2.70136 4.64706C3.60926 2.31699 5.86746 2.3333 8.34139 2.35116ZM9.47149 3.54496C9.13645 3.54811 8.78062 3.55147 8.40286 3.55206V3.55056C3.97186 3.55506 3.55186 3.63906 3.55186 8.99782C3.55186 14.2951 3.70411 14.4466 8.99911 14.4466C9.26631 14.4466 9.52892 14.4494 9.78564 14.4523C12.3191 14.4801 14.2787 14.5016 14.4074 11.6843C14.7798 3.49496 14.1746 3.50066 9.47149 3.54496ZM11.7486 5.45256C11.7486 5.01231 12.1056 4.65531 12.5459 4.65531C12.9861 4.65531 13.3431 5.01231 13.3431 5.45256C13.3431 5.89281 12.9861 6.24981 12.5459 6.24981C12.1056 6.24981 11.7486 5.89281 11.7486 5.45256ZM5.58586 9.00082C5.58586 7.11607 7.11361 5.58756 8.99836 5.58756C10.8831 5.58756 12.4101 7.11607 12.4101 9.00082C12.4101 10.8856 10.8831 12.4133 8.99836 12.4133C7.11361 12.4133 5.58586 10.8856 5.58586 9.00082ZM8.99836 6.78531C11.9271 6.78531 11.9309 11.2163 8.99836 11.2163C6.07036 11.2163 6.06586 6.78531 8.99836 6.78531Z" fill="white"/>
</g>
<defs>
<clipPath id="clip0_801_64">
<rect width="18" height="18" fill="white"/>
</clipPath>
</defs>
</svg>
