<svg width="18" height="14" viewBox="0 0 18 14" fill="none" xmlns="http://www.w3.org/2000/svg">
<path d="M15.6065 3.61079C15.6167 3.75726 15.6167 3.90372 15.6167 4.05154C15.6167 8.55553 12.1879 13.75 5.9182 13.75V13.7473C4.06612 13.75 2.25251 13.2195 0.693359 12.2192C0.962667 12.2516 1.23333 12.2678 1.50466 12.2685C3.03951 12.2698 4.53049 11.7548 5.73799 10.8065C4.27941 10.7788 3.00036 9.82782 2.55354 8.43944C3.06448 8.53798 3.59095 8.51773 4.09244 8.38071C2.50225 8.05943 1.35819 6.66227 1.35819 5.03967C1.35819 5.02483 1.35819 5.01065 1.35819 4.99648C1.83201 5.26039 2.36253 5.40685 2.90519 5.42305C1.40746 4.42209 0.945793 2.42961 1.85024 0.871813C3.58083 3.0013 6.13419 4.29587 8.87519 4.43289C8.60049 3.24901 8.97576 2.00844 9.86131 1.17622C11.2342 -0.1143 13.3934 -0.048154 14.6839 1.32403C15.4473 1.17352 16.1789 0.893412 16.8485 0.496537C16.594 1.28556 16.0615 1.95579 15.3501 2.38169C16.0257 2.30205 16.6858 2.12116 17.3074 1.8451C16.8498 2.53086 16.2734 3.1282 15.6065 3.61079Z" fill="white"/>
</svg>
