<svg width="24" height="17" viewBox="0 0 24 17" fill="none" xmlns="http://www.w3.org/2000/svg">
<path d="M22.7473 2.544C22.4796 1.54922 21.6951 0.765042 20.7003 0.497178C18.8828 0 11.6126 0 11.6126 0C11.6126 0 4.3428 0 2.5253 0.478328C1.54957 0.745909 0.745938 1.54936 0.478296 2.544C0 4.36094 0 8.12903 0 8.12903C0 8.12903 0 11.9161 0.478296 13.7141C0.746221 14.7087 1.53043 15.4929 2.52544 15.7607C4.36194 16.2581 11.6129 16.2581 11.6129 16.2581C11.6129 16.2581 18.8828 16.2581 20.7003 15.7797C21.6953 15.512 22.4796 14.7278 22.7476 13.7332C23.2257 11.9161 23.2257 8.14816 23.2257 8.14816C23.2257 8.14816 23.2448 4.36094 22.7473 2.544ZM9.298 11.6101V4.64793L15.3435 8.12903L9.298 11.6101Z" fill="white"/>
</svg>
